<?plantuml 1.2026.1beta5?><svg xmlns="http://www.w3.org/2000/svg" xmlns:xlink="http://www.w3.org/1999/xlink" contentStyleType="text/css" data-diagram-type="DESCRIPTION" height="348px" preserveAspectRatio="none" style="width:966px;height:348px;background:#FFFFFF;" version="1.1" viewBox="0 0 966 348" width="966px" zoomAndPan="magnify"><title>Scenario - Restaurant - Component deployment with multiple devices</title><defs/><g><g class="title" data-source-line="1"><text fill="#000000" font-family="sans-serif" font-size="14" font-weight="bold" lengthAdjust="spacing" textLength="550.1357" x="201.3379" y="22.9951">Scenario - Restaurant - Component deployment with multiple devices</text></g><!--cluster device1--><g class="cluster" data-qualified-name="device1" data-source-line="6" id="ent0004"><polygon fill="none" points="141.41,53.2969,151.41,43.2969,457.41,43.2969,457.41,135.5969,447.41,145.5969,141.41,145.5969,141.41,53.2969" style="stroke:#181818;stroke-width:1;"/><line style="stroke:#181818;stroke-width:1;" x1="447.41" x2="457.41" y1="53.2969" y2="43.2969"/><line style="stroke:#181818;stroke-width:1;" x1="141.41" x2="447.41" y1="53.2969" y2="53.2969"/><line style="stroke:#181818;stroke-width:1;" x1="447.41" x2="447.41" y1="53.2969" y2="145.5969"/><text fill="#000000" font-family="sans-serif" font-size="14" font-weight="bold" lengthAdjust="spacing" textLength="217.1094" x="186.8553" y="69.292">Device 1 (like Orderman10)</text></g><!--cluster device2--><g class="cluster" data-qualified-name="device2" data-source-line="13" id="ent0010"><polygon fill="none" points="481.41,53.2969,491.41,43.2969,827.41,43.2969,827.41,135.5969,817.41,145.5969,481.41,145.5969,481.41,53.2969" style="stroke:#181818;stroke-width:1;"/><line style="stroke:#181818;stroke-width:1;" x1="817.41" x2="827.41" y1="53.2969" y2="43.2969"/><line style="stroke:#181818;stroke-width:1;" x1="481.41" x2="817.41" y1="53.2969" y2="53.2969"/><line style="stroke:#181818;stroke-width:1;" x1="817.41" x2="817.41" y1="53.2969" y2="145.5969"/><text fill="#000000" font-family="sans-serif" font-size="14" font-weight="bold" lengthAdjust="spacing" textLength="270.8809" x="514.9696" y="69.292">Device 2 (like Google Pixel Phone)</text></g><!--entity app1--><g class="entity" data-qualified-name="device1.app1" data-source-line="7" id="ent0005"><rect fill="#F1F1F1" height="46.2969" rx="2.5" ry="2.5" style="stroke:#181818;stroke-width:0.5;" width="135.4707" x="157.67" y="83.2969"/><rect fill="#F1F1F1" height="10" style="stroke:#181818;stroke-width:0.5;" width="15" x="273.1407" y="88.2969"/><rect fill="#F1F1F1" height="2" style="stroke:#181818;stroke-width:0.5;" width="4" x="271.1407" y="90.2969"/><rect fill="#F1F1F1" height="2" style="stroke:#181818;stroke-width:0.5;" width="4" x="271.1407" y="94.2969"/><text fill="#000000" font-family="sans-serif" font-size="14" lengthAdjust="spacing" textLength="95.4707" x="172.67" y="116.292">InStore App 1</text></g><!--entity posapp1--><g class="entity" data-qualified-name="device1.posapp1" data-source-line="8" id="ent0006"><rect fill="#F1F1F1" height="46.2969" rx="2.5" ry="2.5" style="stroke:#181818;stroke-width:0.5;" width="113.5068" x="327.65" y="83.2969"/><rect fill="#F1F1F1" height="10" style="stroke:#181818;stroke-width:0.5;" width="15" x="421.1568" y="88.2969"/><rect fill="#F1F1F1" height="2" style="stroke:#181818;stroke-width:0.5;" width="4" x="419.1568" y="90.2969"/><rect fill="#F1F1F1" height="2" style="stroke:#181818;stroke-width:0.5;" width="4" x="419.1568" y="94.2969"/><text fill="#000000" font-family="sans-serif" font-size="14" lengthAdjust="spacing" textLength="73.5068" x="342.65" y="116.292">POS App 1</text></g><!--entity app2--><g class="entity" data-qualified-name="device2.app2" data-source-line="14" id="ent0011"><rect fill="#F1F1F1" height="46.2969" rx="2.5" ry="2.5" style="stroke:#181818;stroke-width:0.5;" width="135.4707" x="645.67" y="83.2969"/><rect fill="#F1F1F1" height="10" style="stroke:#181818;stroke-width:0.5;" width="15" x="761.1407" y="88.2969"/><rect fill="#F1F1F1" height="2" style="stroke:#181818;stroke-width:0.5;" width="4" x="759.1407" y="90.2969"/><rect fill="#F1F1F1" height="2" style="stroke:#181818;stroke-width:0.5;" width="4" x="759.1407" y="94.2969"/><text fill="#000000" font-family="sans-serif" font-size="14" lengthAdjust="spacing" textLength="95.4707" x="660.67" y="116.292">InStore App 2</text></g><!--entity posapp2--><g class="entity" data-qualified-name="device2.posapp2" data-source-line="15" id="ent0012"><rect fill="#F1F1F1" height="46.2969" rx="2.5" ry="2.5" style="stroke:#181818;stroke-width:0.5;" width="113.5068" x="497.65" y="83.2969"/><rect fill="#F1F1F1" height="10" style="stroke:#181818;stroke-width:0.5;" width="15" x="591.1568" y="88.2969"/><rect fill="#F1F1F1" height="2" style="stroke:#181818;stroke-width:0.5;" width="4" x="589.1568" y="90.2969"/><rect fill="#F1F1F1" height="2" style="stroke:#181818;stroke-width:0.5;" width="4" x="589.1568" y="94.2969"/><text fill="#000000" font-family="sans-serif" font-size="14" lengthAdjust="spacing" textLength="73.5068" x="512.65" y="116.292">POS App 2</text></g><!--entity POS--><g class="entity" data-qualified-name="POS" data-source-line="3" id="ent0002"><rect fill="#F1F1F1" height="46.2969" rx="2.5" ry="2.5" style="stroke:#181818;stroke-width:0.5;" width="118.709" x="379.05" y="189.5969"/><rect fill="#F1F1F1" height="10" style="stroke:#181818;stroke-width:0.5;" width="15" x="477.759" y="194.5969"/><rect fill="#F1F1F1" height="2" style="stroke:#181818;stroke-width:0.5;" width="4" x="475.759" y="196.5969"/><rect fill="#F1F1F1" height="2" style="stroke:#181818;stroke-width:0.5;" width="4" x="475.759" y="200.5969"/><text fill="#000000" font-family="sans-serif" font-size="14" lengthAdjust="spacing" textLength="78.709" x="394.05" y="222.592">POS Server</text></g><!--entity api--><g class="entity" data-qualified-name="api" data-source-line="4" id="ent0003"><rect fill="#F1F1F1" height="46.2969" rx="2.5" ry="2.5" style="stroke:#181818;stroke-width:0.5;" width="151.6035" x="362.6" y="295.8869"/><rect fill="#F1F1F1" height="10" style="stroke:#181818;stroke-width:0.5;" width="15" x="494.2035" y="300.8869"/><rect fill="#F1F1F1" height="2" style="stroke:#181818;stroke-width:0.5;" width="4" x="492.2035" y="302.8869"/><rect fill="#F1F1F1" height="2" style="stroke:#181818;stroke-width:0.5;" width="4" x="492.2035" y="306.8869"/><text fill="#000000" font-family="sans-serif" font-size="14" lengthAdjust="spacing" textLength="111.6035" x="377.6" y="328.882">POS System API</text></g><g class="entity" data-qualified-name="GMN7" data-source-line="11" id="ent0008"><path d="M6,93.8769 L6,119.0097 A0,0 0 0 0 6,119.0097 L122.8115,119.0097 A0,0 0 0 0 122.8115,119.0097 L122.8115,111.8769 L157.54,106.4469 L122.8115,103.8769 L122.8115,103.8769 L112.8115,93.8769 L6,93.8769 A0,0 0 0 0 6,93.8769" fill="#FEFFDD" style="stroke:#181818;stroke-width:0.5;"/><path d="M112.8115,93.8769 L112.8115,103.8769 L122.8115,103.8769 L112.8115,93.8769" fill="#FEFFDD" style="stroke:#181818;stroke-width:0.5;"/><text fill="#000000" font-family="sans-serif" font-size="13" lengthAdjust="spacing" textLength="95.8115" x="12" y="110.9438">terminalID=01</text></g><g class="entity" data-qualified-name="GMN13" data-source-line="18" id="ent0014"><path d="M843,93.8769 L843,102.4469 L781.34,106.4469 L843,110.4469 L843,119.0097 A0,0 0 0 0 843,119.0097 L959.8115,119.0097 A0,0 0 0 0 959.8115,119.0097 L959.8115,103.8769 L949.8115,93.8769 L843,93.8769 A0,0 0 0 0 843,93.8769" fill="#FEFFDD" style="stroke:#181818;stroke-width:0.5;"/><path d="M949.8115,93.8769 L949.8115,103.8769 L959.8115,103.8769 L949.8115,93.8769" fill="#FEFFDD" style="stroke:#181818;stroke-width:0.5;"/><text fill="#000000" font-family="sans-serif" font-size="13" lengthAdjust="spacing" textLength="95.8115" x="849" y="110.9438">terminalID=02</text></g><!--link posapp1 to POS--><g class="link" data-entity-1="ent0006" data-entity-2="ent0002" data-link-type="dependency" data-source-line="21" id="lnk16"><path d="M396.12,130.0769 C405.18,147.5669 414.9014,166.3486 423.9514,183.8286" fill="none" id="posapp1-to-POS" style="stroke:#181818;stroke-width:1;"/><polygon fill="#181818" points="426.71,189.1569,426.1242,179.3255,424.4112,184.7167,419.0199,183.0036,426.71,189.1569" style="stroke:#181818;stroke-width:1;"/></g><!--link posapp2 to POS--><g class="link" data-entity-1="ent0012" data-entity-2="ent0002" data-link-type="dependency" data-source-line="22" id="lnk17"><path d="M529.24,130.0769 C509.78,147.5669 487.4316,167.6651 467.9916,185.1451" fill="none" id="posapp2-to-POS" style="stroke:#181818;stroke-width:1;"/><polygon fill="#181818" points="463.53,189.1569,472.8969,186.1136,467.248,185.8137,467.5479,180.1648,463.53,189.1569" style="stroke:#181818;stroke-width:1;"/></g><!--link POS to api--><g class="link" data-entity-1="ent0002" data-entity-2="ent0003" data-link-type="dependency" data-source-line="23" id="lnk18"><path d="M438.41,236.3769 C438.41,253.8669 438.41,271.9669 438.41,289.4469" fill="none" id="POS-to-api" style="stroke:#181818;stroke-width:1;"/><polygon fill="#181818" points="438.41,295.4469,442.41,286.4469,438.41,290.4469,434.41,286.4469,438.41,295.4469" style="stroke:#181818;stroke-width:1;"/></g><!--link api to app1--><g class="link" data-entity-1="ent0003" data-entity-2="ent0005" data-link-type="dependency" data-source-line="24" id="lnk19"><path d="M415.77,295.6669 C374.9,255.2469 293.467,174.735 252.467,134.205" fill="none" id="api-to-app1" style="stroke:#181818;stroke-width:1;"/><polygon fill="#181818" points="248.2,129.9869,251.7885,139.1587,251.7559,133.502,257.4126,133.4694,248.2,129.9869" style="stroke:#181818;stroke-width:1;"/></g><!--link api to app2--><g class="link" data-entity-1="ent0003" data-entity-2="ent0011" data-link-type="dependency" data-source-line="25" id="lnk20"><path d="M467.62,295.6669 C520.4,255.2469 626.2862,174.1646 679.2162,133.6346" fill="none" id="api-to-app2" style="stroke:#181818;stroke-width:1;"/><polygon fill="#181818" points="683.98,129.9869,674.4025,132.2827,680.0102,133.0267,679.2662,138.6344,683.98,129.9869" style="stroke:#181818;stroke-width:1;"/></g><?plantuml-src VP71QiCm38RlVWgHqtO8rBvlK5OOEJKiJs0IjJ5pR6EhtShOkq_EaYPRsGm62V_I_raYGnQXQT7fQ3oKy8A9z2bgHvmy-I5uXnnt6Ao_33byCzJ3SB9a0fTsU3Oj9Y7QgxQezmqq6CyO2z09EBrvlIJ20RPrDIfqC48uto4Kkx4VIBYpvXLX7pkCWtPoSpygl-qaV0ZWi-fQkOPyHDY6079g6kHlLVPU5C6dKVJ9teHWyK3W3qiXiRLnsbQxXuqKw3h8kf-WQW9zzlx8uwZDErgeU_PR0wl_WTKChFu2LYjWDGD7S-ndOdL3h1PYCVqKol9nNCVKw9fdcnpdHV2TOXx3Ab5V?></g></svg>