<?plantuml 1.2026.1beta5?><svg xmlns="http://www.w3.org/2000/svg" xmlns:xlink="http://www.w3.org/1999/xlink" contentStyleType="text/css" data-diagram-type="DESCRIPTION" height="486px" preserveAspectRatio="none" style="width:582px;height:486px;background:#FFFFFF;" version="1.1" viewBox="0 0 582 486" width="582px" zoomAndPan="magnify"><title>Scenario - Retail - Customer Interface</title><defs/><g><g class="title" data-source-line="1"><text fill="#000000" font-family="sans-serif" font-size="14" font-weight="bold" lengthAdjust="spacing" textLength="298.0879" x="134.9561" y="22.9951">Scenario - Retail - Customer Interface</text></g><!--cluster desk--><g class="cluster" data-qualified-name="desk" data-source-line="3" id="ent0002"><path d="M8.5,43.2969 L93.6914,43.2969 A3.75,3.75 0 0 1 96.1914,45.7969 L103.1914,65.5938 L572.5,65.5938 A2.5,2.5 0 0 1 575,68.0938 L575,226.0969 A2.5,2.5 0 0 1 572.5,228.5969 L8.5,228.5969 A2.5,2.5 0 0 1 6,226.0969 L6,45.7969 A2.5,2.5 0 0 1 8.5,43.2969" fill="none" style="stroke:#000000;stroke-width:1.5;"/><line style="stroke:#000000;stroke-width:1.5;" x1="6" x2="103.1914" y1="65.5938" y2="65.5938"/><text fill="#000000" font-family="sans-serif" font-size="14" font-weight="bold" lengthAdjust="spacing" textLength="84.1914" x="10" y="58.292">Sales desk</text></g><!--cluster terminal--><g class="cluster" data-qualified-name="desk.terminal" data-source-line="4" id="ent0003"><polygon fill="none" points="30,112.2969,40,102.2969,212,102.2969,212,194.5969,202,204.5969,30,204.5969,30,112.2969" style="stroke:#181818;stroke-width:1;"/><line style="stroke:#181818;stroke-width:1;" x1="202" x2="212" y1="112.2969" y2="102.2969"/><line style="stroke:#181818;stroke-width:1;" x1="30" x2="202" y1="112.2969" y2="112.2969"/><line style="stroke:#181818;stroke-width:1;" x1="202" x2="202" y1="112.2969" y2="204.5969"/><text fill="#000000" font-family="sans-serif" font-size="14" font-weight="bold" lengthAdjust="spacing" textLength="106.668" x="63.666" y="128.292">POS Terminal</text></g><!--cluster interface--><g class="cluster" data-qualified-name="desk.interface" data-source-line="7" id="ent0005"><polygon fill="none" points="236,96.2969,246,86.2969,551,86.2969,551,194.5969,541,204.5969,236,204.5969,236,96.2969" style="stroke:#181818;stroke-width:1;"/><line style="stroke:#181818;stroke-width:1;" x1="541" x2="551" y1="96.2969" y2="86.2969"/><line style="stroke:#181818;stroke-width:1;" x1="236" x2="541" y1="96.2969" y2="96.2969"/><line style="stroke:#181818;stroke-width:1;" x1="541" x2="541" y1="96.2969" y2="204.5969"/><text fill="#000000" font-family="sans-serif" font-size="14" font-weight="bold" lengthAdjust="spacing" textLength="75.8721" x="351.564" y="112.292">Customer</text><text fill="#000000" font-family="sans-serif" font-size="14" font-weight="bold" lengthAdjust="spacing" textLength="71.5996" x="353.7002" y="128.5889">Interface</text></g><!--cluster backend--><g class="cluster" data-qualified-name="backend" data-source-line="15" id="ent0010"><polygon fill="none" points="85,262.5969,95,252.5969,235,252.5969,235,344.8869,225,354.8869,85,354.8869,85,262.5969" style="stroke:#181818;stroke-width:1;"/><line style="stroke:#181818;stroke-width:1;" x1="225" x2="235" y1="262.5969" y2="252.5969"/><line style="stroke:#181818;stroke-width:1;" x1="85" x2="225" y1="262.5969" y2="262.5969"/><line style="stroke:#181818;stroke-width:1;" x1="225" x2="225" y1="262.5969" y2="354.8869"/><text fill="#000000" font-family="sans-serif" font-size="14" font-weight="bold" lengthAdjust="spacing" textLength="66.5615" x="122.7192" y="278.592">backend</text></g><!--cluster internet--><g class="cluster" data-qualified-name="internet" data-source-line="18" id="ent0012"><path d="M145.8329,387.7731 C148.5601,381.5147 154.2018,381.5254 157.194,387.5276 C161.2824,381.3044 165.3876,381.9971 169.6294,387.363 C172.532,381.4961 178.7314,380.3008 182.8702,385.9405 C186.0289,380.5309 190.5072,381.7895 193.4472,386.1768 C196.0556,380.272 201.2004,379.2676 205.0177,384.9719 C208.7825,378.7728 214.0688,378.5833 217.5707,385.2288 C219.9699,379.9248 225.7291,379.296 229.3903,383.691 C233.0232,377.8557 238.6836,379.2753 241.4884,384.5895 C245.6725,379.0795 251.0715,379.7242 253.9188,385.9995 C257.7748,380.8546 262.6881,381.3742 265.6394,386.9853 C269.0101,381.5164 272.7232,379.858 277.3242,385.7161 C281.3395,379.8455 287.3752,379.7467 290.8718,386.2826 C294.7079,380.9709 299.0595,381.8483 302.2667,386.9695 C306.8027,381.3882 310.7799,382.2491 314.6561,387.7099 C321.9359,392.2522 321.9135,396.5107 315.2257,401.6248 C322.2385,404.1195 322.7331,410.4053 317.6757,415.0953 C325.1599,417.0451 326.2045,422.2587 321.0106,427.5919 C328.0152,433.6195 326.4376,439.4165 318.3372,442.7865 C322.8343,446.5137 323.7888,452.2134 317.0648,454.7468 C323.0162,460.499 321.6212,465.0192 314.56,468.3808 C312.1326,475.0965 305.7604,475.8508 301.362,470.5447 C298.6128,475.48 294.4905,475.8335 291.2227,471.0879 C286.5796,476.8697 282.4426,477.8297 278.1886,470.6953 C274.7208,476.9054 271.18,477.4628 266.7566,471.6001 C263.1063,477.6403 257.604,478.8845 253.1404,472.4907 C250.1309,478.2321 244.3796,477.6331 241.5098,472.3435 C239.3187,478.6353 234.961,479.1339 230.8683,474.136 C225.6693,479 221.9337,477.9545 218.3118,472.2605 C214.6434,476.9142 210.4977,476.9889 206.8029,472.293 C201.9713,478.8157 197.0988,477.2071 193.6093,470.9116 C191.2088,476.5524 185.7408,476.1949 182.4309,471.9388 C178.2993,478.5394 173.3729,477.7146 169.7115,471.4731 C165.9686,475.9412 161.7441,474.953 159.279,470.0505 C155.4461,476.7556 150.4696,475.5975 146.8506,469.8372 C140.4095,466.0188 139.7842,461.6083 145.4033,456.4829 C139.2177,452.9927 139.1842,447.4075 144.485,443.1276 C137.0991,439.018 137.4676,434.0076 142.9123,428.5168 C136.8522,424.1727 136.57,418.7919 143.3924,414.902 C137.6014,410.5605 139.1503,405.6642 144.846,402.6899 C138.2334,397.9151 139.3428,391.6811 145.8329,387.7731" fill="none" style="stroke:#181818;stroke-width:1;"/><text fill="#000000" font-family="sans-serif" font-size="14" font-weight="bold" lengthAdjust="spacing" textLength="64.0117" x="196.9941" y="404.882">internet</text></g><!--entity posapp1--><g class="entity" data-qualified-name="desk.terminal.posapp1" data-source-line="5" id="ent0004"><rect fill="#F1F1F1" height="46.2969" rx="2.5" ry="2.5" style="stroke:#181818;stroke-width:0.5;" width="100.1494" x="95.93" y="142.2969"/><rect fill="#F1F1F1" height="10" style="stroke:#181818;stroke-width:0.5;" width="15" x="176.0794" y="147.2969"/><rect fill="#F1F1F1" height="2" style="stroke:#181818;stroke-width:0.5;" width="4" x="174.0794" y="149.2969"/><rect fill="#F1F1F1" height="2" style="stroke:#181818;stroke-width:0.5;" width="4" x="174.0794" y="153.2969"/><text fill="#000000" font-family="sans-serif" font-size="14" lengthAdjust="spacing" textLength="60.1494" x="110.93" y="175.292">POS App</text></g><!--entity app1--><g class="entity" data-qualified-name="desk.interface.app1" data-source-line="8" id="ent0006"><rect fill="#F1F1F1" height="46.2969" rx="2.5" ry="2.5" style="stroke:#181818;stroke-width:0.5;" width="122.1133" x="251.94" y="142.2969"/><rect fill="#F1F1F1" height="10" style="stroke:#181818;stroke-width:0.5;" width="15" x="354.0533" y="147.2969"/><rect fill="#F1F1F1" height="2" style="stroke:#181818;stroke-width:0.5;" width="4" x="352.0533" y="149.2969"/><rect fill="#F1F1F1" height="2" style="stroke:#181818;stroke-width:0.5;" width="4" x="352.0533" y="153.2969"/><text fill="#000000" font-family="sans-serif" font-size="14" lengthAdjust="spacing" textLength="82.1133" x="266.94" y="175.292">InStore App</text></g><g class="entity" data-qualified-name="desk.interface.GMN7" data-source-line="10" id="ent0008"><path d="M409.11,145.3169 L409.11,161.4469 L374.49,165.4469 L409.11,169.4469 L409.11,185.5825 A0,0 0 0 0 409.11,185.5825 L534.8844,185.5825 A0,0 0 0 0 534.8844,185.5825 L534.8844,155.3169 L524.8844,145.3169 L409.11,145.3169 A0,0 0 0 0 409.11,145.3169" fill="#FEFFDD" style="stroke:#181818;stroke-width:0.5;"/><path d="M524.8844,145.3169 L524.8844,155.3169 L534.8844,155.3169 L524.8844,145.3169" fill="#FEFFDD" style="stroke:#181818;stroke-width:0.5;"/><text fill="#000000" font-family="sans-serif" font-size="13" lengthAdjust="spacing" textLength="72.9346" x="415.11" y="162.3838">+ payment</text><text fill="#000000" font-family="sans-serif" font-size="13" lengthAdjust="spacing" textLength="104.7744" x="415.11" y="177.5166">+ issue receipts</text></g><!--entity POS--><g class="entity" data-qualified-name="backend.POS" data-source-line="16" id="ent0011"><rect fill="#F1F1F1" height="46.2969" rx="2.5" ry="2.5" style="stroke:#181818;stroke-width:0.5;" width="118.709" x="100.65" y="292.5969"/><rect fill="#F1F1F1" height="10" style="stroke:#181818;stroke-width:0.5;" width="15" x="199.359" y="297.5969"/><rect fill="#F1F1F1" height="2" style="stroke:#181818;stroke-width:0.5;" width="4" x="197.359" y="299.5969"/><rect fill="#F1F1F1" height="2" style="stroke:#181818;stroke-width:0.5;" width="4" x="197.359" y="303.5969"/><text fill="#000000" font-family="sans-serif" font-size="14" lengthAdjust="spacing" textLength="78.709" x="115.65" y="325.592">POS Server</text></g><!--entity api--><g class="entity" data-qualified-name="internet.api" data-source-line="19" id="ent0013"><rect fill="#F1F1F1" height="46.2969" rx="2.5" ry="2.5" style="stroke:#181818;stroke-width:0.5;" width="151.6035" x="153.2" y="413.8869"/><rect fill="#F1F1F1" height="10" style="stroke:#181818;stroke-width:0.5;" width="15" x="284.8035" y="418.8869"/><rect fill="#F1F1F1" height="2" style="stroke:#181818;stroke-width:0.5;" width="4" x="282.8035" y="420.8869"/><rect fill="#F1F1F1" height="2" style="stroke:#181818;stroke-width:0.5;" width="4" x="282.8035" y="424.8869"/><text fill="#000000" font-family="sans-serif" font-size="14" lengthAdjust="spacing" textLength="111.6035" x="168.2" y="446.882">POS System API</text></g><!--link api to app1--><g class="link" data-entity-1="ent0013" data-entity-2="ent0006" data-link-type="dependency" data-source-line="22" id="lnk14"><path d="M236.06,413.3869 C251.91,362.5269 288.3854,245.4453 304.1954,194.6953" fill="none" id="api-to-app1" style="stroke:#181818;stroke-width:1;"/><polygon fill="#181818" points="305.98,188.9669,299.4842,196.3699,304.4929,193.7406,307.1221,198.7493,305.98,188.9669" style="stroke:#181818;stroke-width:1;"/></g><!--link POS to api--><g class="link" data-entity-1="ent0011" data-entity-2="ent0013" data-link-type="dependency" data-source-line="23" id="lnk15"><path d="M172.98,339.1769 C185.31,360.5069 200.7548,387.2137 213.0748,408.5037" fill="none" id="POS-to-api" style="stroke:#181818;stroke-width:1;"/><polygon fill="#181818" points="216.08,413.6969,215.0344,403.9037,213.5757,409.3692,208.1101,407.9106,216.08,413.6969" style="stroke:#181818;stroke-width:1;"/></g><!--link posapp1 to POS--><g class="link" data-entity-1="ent0004" data-entity-2="ent0011" data-link-type="dependency" data-source-line="24" id="lnk16"><path d="M148.13,188.9669 C150.77,217.0069 154.695,258.6135 157.335,286.5235" fill="none" id="posapp1-to-POS" style="stroke:#181818;stroke-width:1;"/><polygon fill="#181818" points="157.9,292.4969,161.0347,283.1602,157.4292,287.5191,153.0703,283.9135,157.9,292.4969" style="stroke:#181818;stroke-width:1;"/></g><?plantuml-src TL3BQWCn3BpxAqIkPG_zWKB8QKyDTO-vk5ub5V4BMri88VzUhUqiRMXriKUQ6KPYOeUWBGQJAS80RyY6d7nsS-7eCSCO6FFHM5Gg6Nis9uIDDWuBJ5ZE6p3j0rS5KY5ECj-_QdZ7x2aOLndSGMSjPQDFCM3WHj-cL9af5fFISwNTVbZUynp26gZowOx-jXw3vfXnjL-zcpCZP3fzCiJZxz5IJv3CnOlDGvTAcKM75YbnMOSOfkhOezzK3VuXDricBTt3qXhp5-OQJA18h8lpr7OAoF-8BeNHmtO_zer8X4eU68QNjiL2Qu1KFsZ5qly6?></g></svg>